<svg width="135" height="32" viewBox="0 0 135 32" fill="none" xmlns="http://www.w3.org/2000/svg">
<path d="M6 28V26H4V24H2V20H6V22H8V24H16V22H18V18H16V16H8V12H16V10H18V6H16V4H8V6H6V8H2V4H4V2H6V0H18V2H20V4H22V12H20V16H22V24H20V26H18V28H6ZM38.08 24V22H40.08V18H38.08V16H28.08V24H38.08ZM36.08 12V10H38.08V6H36.08V4H28.08V12H36.08ZM24.08 28V0H38.08V2H40.08V4H42.08V12H40.08V14H42.08V16H44.08V24H42.08V26H40.08V28H24.08ZM50.16 28V26H48.16V24H46.16V20H50.16V22H52.16V24H60.16V22H62.16V16H60.16V18H50.16V16H48.16V14H46.16V0H50.16V12H52.16V14H60.16V12H62.16V0H66.16V24H64.16V26H62.16V28H50.16ZM84.24 28V18H72.24V16H70.24V14H68.24V0H72.24V12H74.24V14H84.24V0H88.24V28H84.24ZM90.32 28V0H94.32V12H106.32V0H110.32V28H106.32V16H94.32V28H90.32ZM126.4 24V22H128.4V6H126.4V4H118.4V6H116.4V22H118.4V24H126.4ZM116.4 28V26H114.4V24H112.4V4H114.4V2H116.4V0H128.4V2H130.4V4H132.4V24H130.4V26H128.4V28H116.4Z" fill="white"/>
</svg>
