<svg width="28" height="28" viewBox="0 0 28 28" fill="none" xmlns="http://www.w3.org/2000/svg">
<path fill-rule="evenodd" clip-rule="evenodd" d="M4.6499 2.30802C5.35327 1.85024 6.29309 1.76457 7.1227 2.25997L23.3918 11.9972C23.3918 11.9971 23.3919 11.9972 23.3918 11.9972C24.1564 12.4546 24.4993 13.2612 24.4993 14.0001C24.4993 14.739 24.1566 15.5455 23.392 16.0029C23.392 16.0029 23.3921 16.0029 23.392 16.0029L7.12361 25.7397C6.29399 26.2351 5.35327 26.15 4.6499 25.6922C3.9554 25.2402 3.5 24.4395 3.5 23.5157V4.48447C3.5 3.56071 3.9554 2.76002 4.6499 2.30802ZM5.79541 4.06808C5.70241 4.12861 5.6 4.26373 5.6 4.48447V23.5157C5.6 23.7365 5.70241 23.8716 5.79541 23.9321C5.84265 23.9629 5.88561 23.9739 5.91885 23.9752C5.94815 23.9763 5.98948 23.971 6.04605 23.9372L22.3138 14.2009C22.3445 14.1825 22.3993 14.125 22.3993 14.0001C22.3993 13.8752 22.3445 13.8177 22.3138 13.7993L6.04605 4.06297C6.04596 4.06292 6.04614 4.06303 6.04605 4.06297C5.98961 4.02933 5.9481 4.02392 5.91885 4.02503C5.88561 4.0263 5.84265 4.03733 5.79541 4.06808Z" fill="#100F0D"/>
</svg>
