<svg width="17" height="17" viewBox="0 0 17 17" fill="none" xmlns="http://www.w3.org/2000/svg">
<path d="M7.79168 9.20834H0.708343C0.507176 9.20834 0.339065 9.14034 0.20401 9.00434C0.0689542 8.86834 0.000954148 8.69976 9.70318e-06 8.49859C-0.000934741 8.29743 0.0670653 8.12931 0.20401 7.99426C0.340954 7.8592 0.509065 7.79168 0.708343 7.79168H7.79168V0.708343C7.79168 0.507176 7.85968 0.339065 7.99568 0.20401C8.13168 0.0689542 8.30026 0.000954148 8.50143 9.70318e-06C8.70259 -0.000934741 8.8707 0.0670653 9.00576 0.20401C9.14081 0.340954 9.20834 0.509065 9.20834 0.708343V7.79168H16.2917C16.4928 7.79168 16.661 7.85968 16.796 7.99568C16.9311 8.13168 16.9991 8.30026 17 8.50143C17.001 8.70259 16.933 8.8707 16.796 9.00576C16.6591 9.14081 16.491 9.20834 16.2917 9.20834H9.20834V16.2917C9.20834 16.4928 9.14034 16.661 9.00434 16.796C8.86834 16.9311 8.69976 16.9991 8.49859 17C8.29743 17.001 8.12931 16.933 7.99426 16.796C7.8592 16.6591 7.79168 16.491 7.79168 16.2917V9.20834Z" fill="#100F0D"/>
</svg>
