<svg width="20" height="20" viewBox="0 0 20 20" fill="none" xmlns="http://www.w3.org/2000/svg">
<g clip-path="url(#clip0_5904_11721)">
<path fill-rule="evenodd" clip-rule="evenodd" d="M0.25 10C0.25 4.61704 4.61704 0.25 10 0.25C15.383 0.25 19.75 4.61704 19.75 10C19.75 15.383 15.383 19.75 10 19.75C4.61704 19.75 0.25 15.383 0.25 10ZM10 1.75C5.44546 1.75 1.75 5.44546 1.75 10C1.75 14.5545 5.44546 18.25 10 18.25C14.5545 18.25 18.25 14.5545 18.25 10C18.25 5.44546 14.5545 1.75 10 1.75Z" fill="#100F0D"/>
<path fill-rule="evenodd" clip-rule="evenodd" d="M6.46967 6.46967C6.76256 6.17678 7.23744 6.17678 7.53033 6.46967L13.5303 12.4697C13.8232 12.7626 13.8232 13.2374 13.5303 13.5303C13.2374 13.8232 12.7626 13.8232 12.4697 13.5303L6.46967 7.53033C6.17678 7.23744 6.17678 6.76256 6.46967 6.46967Z" fill="#100F0D"/>
<path fill-rule="evenodd" clip-rule="evenodd" d="M13.5303 6.46967C13.8232 6.76256 13.8232 7.23744 13.5303 7.53033L7.53033 13.5303C7.23744 13.8232 6.76256 13.8232 6.46967 13.5303C6.17678 13.2374 6.17678 12.7626 6.46967 12.4697L12.4697 6.46967C12.7626 6.17678 13.2374 6.17678 13.5303 6.46967Z" fill="#100F0D"/>
</g>
<defs>
<clipPath id="clip0_5904_11721">
<rect width="20" height="20" fill="white"/>
</clipPath>
</defs>
</svg>